<svg version="1.1" xmlns="http://www.w3.org/2000/svg" xmlns:xlink="http://www.w3.org/1999/xlink" width="79.9075" height="46.46142" viewBox="0,0,79.9075,46.46142"><g transform="translate(-200.04625,-156.91683)"><g data-paper-data="{&quot;isPaintingLayer&quot;:true}" fill-rule="nonzero" stroke-linejoin="miter" stroke-miterlimit="10" stroke-dasharray="" stroke-dashoffset="0" style="mix-blend-mode: normal"><g stroke="#703d00" stroke-linecap="round"><path d="M237.85639,158.47468c9.95763,0 17.34879,2.50019 25.51446,6.79943c3.88025,2.04777 7.58005,5.71702 9.73504,10.94967c1.7063,4.18423 2.62826,10.28681 1.08838,14.51703c-1.78073,4.89196 -5.89622,7.08761 -9.40923,8.32675c-8.03717,2.82235 -16.43525,3.24302 -24.68167,2.90338c-9.28424,0.00772 -18.71734,-0.29358 -27.76144,-3.89598c-3.41822,-1.36083 -6.46498,-5.3905 -8.50622,-9.85406c-1.30957,-2.98013 -2.30526,-8.01231 -1.08838,-11.61366c2.03141,-5.16145 5.68065,-9.15392 9.5946,-11.33313c8.11932,-4.49536 15.55682,-6.79943 25.51446,-6.79943z" data-paper-data="{&quot;origPos&quot;:null}" fill="#a85b00" stroke-width="2.61452"/><path d="M237.75899,158.54869c9.96255,0 17.30905,0.44434 25.52646,3.74866c3.8226,1.53883 9.21641,5.30926 9.0752,9.90792c0.14121,4.4434 -5.52736,7.08564 -9.0752,8.1762c-8.40033,2.58087 -17.02403,3.19738 -25.73206,3.05589c-8.72987,0.00197 -17.84488,-1.08164 -26.48227,-4.00791c-2.87712,-0.97084 -7.2588,-3.4765 -6.88608,-7.22418c0.20827,-4.81837 4.58524,-8.5334 8.04749,-9.90792c8.23652,-3.26774 15.56392,-3.74866 25.52646,-3.74866z" data-paper-data="{&quot;origPos&quot;:null}" fill="#a85b00" stroke-width="2.4183"/><path d="M239.98631,158.75752c14.85485,-0.01847 18.19352,2.75866 26.85843,5.13765c4.07406,1.11928 8.71828,3.8002 10.14652,7.61867c1.98858,5.32253 1.84884,14.65522 -0.73729,17.02789c-1.8334,1.68594 -4.75517,-7.90516 -7.96976,-8.32085c-2.03422,-0.47959 -0.30756,5.39556 -2.52785,6.53029c-3.01938,1.52654 -8.45707,-3.20756 -10.14652,-0.73729c-1.91415,2.80521 3.74403,7.39186 2.52785,10.88381c-0.59896,2.26664 -5.17297,3.68434 -6.53029,1.82567c-2.58684,-3.54602 0.37918,-9.26528 -1.82567,-13.06057c-1.1579,-1.99771 -4.81135,-2.08899 -6.53029,-0.73729c-3.23074,2.54962 -2.85647,8.17128 -6.14409,10.53272c-1.75896,1.26182 -4.55154,0.37918 -6.17919,-0.73729c-4.11478,-3.4772 -5.14488,-11.36831 -10.14652,-12.32328c-3.77352,-0.72535 -5.77263,9.09606 -8.35596,7.96976c-2.91897,-1.2864 0.3553,-11.06076 -2.17676,-13.41166c-1.56516,-1.44649 -4.55716,6.953 -6.14409,5.79299c-1.84393,-1.56797 -2.0616,-7.73523 -0.73729,-11.2349c1.38189,-3.53899 4.6035,-6.82239 8.25625,-7.83775c9.13327,-2.53558 7.63411,-3.83981 28.3625,-4.91857z" data-paper-data="{&quot;origPos&quot;:null}" fill="#703d00" stroke-width="1.99513"/></g><path d="M238.52346,157.92901c9.00337,0.22175 18.22301,0.74403 26.85843,3.35888c4.47289,1.35802 10.03347,4.13472 12.07752,8.74047c2.19221,5.03689 2.05248,14.6225 -1.08838,17.04741c-2.17676,1.60217 -5.60832,-8.42477 -9.54966,-8.99326c-2.16763,-0.33375 -0.30756,5.55053 -2.52785,6.71784c-3.01938,1.57036 -8.45707,-3.29969 -10.14652,-0.7585c-1.91415,2.88582 3.74403,7.6042 2.52785,11.19642c-0.59896,2.33173 -5.17297,3.79016 -6.53029,1.87812c-2.58684,-3.6479 0.37918,-9.53141 -1.82567,-13.43568c-1.1579,-2.05507 -4.81135,-2.14903 -6.53029,-0.7585c-3.23074,2.62286 -2.85647,8.40595 -6.14409,10.83522c-1.75896,1.29805 -4.55154,0.39006 -6.17919,-0.75843c-4.11478,-3.57705 -5.14488,-11.69483 -10.14652,-12.67725c-3.77352,-0.74614 -5.77263,9.35734 -8.35596,8.19867c-2.91897,-1.32333 0.3553,-11.37843 -2.17676,-13.79688c-1.56516,-1.48799 -4.55716,7.1527 -6.14409,5.95941c-1.84393,-1.61298 -2.0616,-7.9574 -0.73729,-11.55755c1.38189,-3.64067 4.6035,-7.01837 8.25625,-8.06287c9.13327,-2.60839 18.86901,-2.98694 28.3625,-3.13355z" fill="#ddc6d2" stroke="#ddc6d2" stroke-width="2.02398" stroke-linecap="round"/><path d="M239.48896,165.86127c2.30035,0 4.38512,0.1615 5.89481,0.42201c1.50899,0.26051 2.44359,0.62003 2.44359,1.01746c0,0.39743 -0.9346,0.75695 -2.44359,1.01746c-1.50969,0.26051 -3.59447,0.42201 -5.89481,0.42201c-2.30035,0 -4.38512,-0.1615 -5.89481,-0.42201c-1.50899,-0.26051 -2.44359,-0.62003 -2.44359,-1.01746c0,-0.39743 0.9346,-0.75695 2.44359,-1.01746c1.50969,-0.26051 3.59447,-0.42201 5.89481,-0.42201z" fill="#a85b00" stroke="#703d00" stroke-width="1.99513" stroke-linecap="butt"/><g fill="none" stroke="#6148a4" stroke-width="1.99513" stroke-linecap="round"><path d="M222.7946,175.90008l2.17676,-4.70461" data-paper-data="{&quot;origPos&quot;:null}"/><path d="M237.68084,160.41937h4.35352" data-paper-data="{&quot;origPos&quot;:null}"/><path d="M239.8576,180.36131l4.35352,-1.43947" data-paper-data="{&quot;origPos&quot;:null}"/><path d="M252.53197,173.47994l4.00243,1.43947" data-paper-data="{&quot;origPos&quot;:null}"/><path d="M213.73646,181.0986l3.61623,-1.43947" data-paper-data="{&quot;origPos&quot;:null}"/><path d="M204.67832,172.63493v-2.91405" data-paper-data="{&quot;origPos&quot;:null}"/><path d="M222.09242,160.06828l3.26514,-0.35109" data-paper-data="{&quot;origPos&quot;:null}"/><path d="M277.21364,178.92184v-4.00243" data-paper-data="{&quot;origPos&quot;:null}"/><path d="M256.18332,168.03803h-3.26514" data-paper-data="{&quot;origPos&quot;:null}"/><path d="M252.18088,159.71719h2.17676z" data-paper-data="{&quot;origPos&quot;:null}"/></g><g fill="none" stroke="#9b4976" stroke-width="1.99513" stroke-linecap="round"><path d="M223.53189,165.51018l-3.61623,0.70218" data-paper-data="{&quot;origPos&quot;:null}"/><path d="M235.85517,174.91941h-4.35352" data-paper-data="{&quot;origPos&quot;:null}"/><path d="M260.15064,170.95209v-3.26514" data-paper-data="{&quot;origPos&quot;:null}"/><path d="M246.00169,161.15666l3.65134,2.17676" data-paper-data="{&quot;origPos&quot;:null}"/><path d="M272.86012,173.47994v4.00243" data-paper-data="{&quot;origPos&quot;:null}"/><path d="M266.32983,165.12398h2.91405" data-paper-data="{&quot;origPos&quot;:null}"/><path d="M209.38294,170.56589l3.26514,-3.26514" data-paper-data="{&quot;origPos&quot;:null}"/></g><g fill="none" stroke="#ffffff" stroke-width="1.99513" stroke-linecap="round"><path d="M213.38537,174.91941l2.87894,-0.70218" data-paper-data="{&quot;origPos&quot;:null}"/><path d="M230.06217,161.15666l2.91405,2.52785" data-paper-data="{&quot;origPos&quot;:null}"/><path d="M232.13122,186.18942l2.87894,-2.56296" data-paper-data="{&quot;origPos&quot;:null}"/><path d="M250.2475,181.83589l-2.91405,-2.17676" data-paper-data="{&quot;origPos&quot;:null}"/><path d="M256.77778,180.01022l-0.35109,2.17676z" data-paper-data="{&quot;origPos&quot;:null}"/><path d="M260.39402,162.24504h-3.26514" data-paper-data="{&quot;origPos&quot;:null}"/><path d="M269.10106,172.39156l-2.87894,0.73729" data-paper-data="{&quot;origPos&quot;:null}"/><path d="M205.38051,165.51018l4.00243,-1.47458" data-paper-data="{&quot;origPos&quot;:null}"/><path d="M215.41931,162.24504l1.08838,2.52785z" data-paper-data="{&quot;origPos&quot;:null}"/><path d="M246.24506,170.95209l0.3862,1.79056z" data-paper-data="{&quot;origPos&quot;:null}"/></g></g></g></svg>