<svg version="1.1" xmlns="http://www.w3.org/2000/svg" xmlns:xlink="http://www.w3.org/1999/xlink" width="77.7949" height="47.74679" viewBox="0,0,77.7949,47.74679"><g transform="translate(-201.10255,-156.1266)"><g data-paper-data="{&quot;isPaintingLayer&quot;:true}" fill-rule="evenodd" stroke="none" stroke-width="1" stroke-linecap="butt" stroke-linejoin="miter" stroke-miterlimit="10" stroke-dasharray="" stroke-dashoffset="0" style="mix-blend-mode: normal"><path d="M206.84188,203.87138c-9.15569,0 -3.61329,-38.10941 19.73755,-37.54398c23.78525,0.57651 32.42087,37.54398 32.42087,37.54398z" fill="#efab00"/><path d="M276.24765,188.5748c0,0 -47.52211,12.65409 -56.05191,13.91093c-11.42244,1.68318 -15.20808,-1.98958 -16.58688,-7.93715c-2.28086,-9.83804 5.66839,-10.16258 8.10446,-15.53767c2.43507,-5.3761 -3.29379,-14.12158 8.10446,-14.57311c9.53365,-0.37796 9.67879,-7.70332 14.36549,-8.24153c7.26892,-0.83453 8.85635,6.0665 14.23446,7.98956c5.07978,1.81622 7.75271,-2.83117 13.43823,-0.54628c4.87114,1.95833 5.09086,12.36684 11.5071,14.53078c10.45688,3.52762 2.88459,10.40447 2.88459,10.40447" fill="#59c059"/><path d="M214.49944,185.56c-1.03712,-0.31446 -1.62976,-1.42214 -1.31429,-2.45926l0.63195,-2.08432c0.31446,-1.03712 1.42113,-1.62875 2.45926,-1.31429l5.54945,1.68217c1.03813,0.31547 1.62976,1.42214 1.31429,2.46026l-0.63195,2.08331c-0.31446,1.03813 -1.42113,1.62875 -2.45926,1.31429l-5.54945,-1.68217" fill="#e8511c"/><path d="M210.78093,184.08847c1.149,0.29229 2.79186,1.54207 4.13236,1.87468c-3.46715,8.98032 -4.09204,17.58772 -8.38566,17.89009h-0.02016c-3.29581,-0.27213 -6.85367,-3.35628 -4.79757,-6.53114c1.21955,-1.88476 -0.67529,-4.22307 -0.16126,-6.39004c0.73576,-3.12447 3.93078,-3.79975 5.03946,-4.1122c1.20947,-0.3326 2.48949,-3.16478 4.19283,-2.73139" fill="#c18500"/><path d="M219.41836,180.66124c-1.01797,1.84444 -1.85452,3.73928 -2.56005,5.61396l-0.94742,-0.29229l-0.9071,-0.27112c0.73576,-1.87569 1.60255,-3.76045 2.65076,-5.58372z" fill="#c6431a"/><path d="M216.85831,186.2756c-3.33612,8.78882 -4.01141,17.13417 -8.15385,17.56756c-0.48379,0 -0.72568,0 -1.532,0.03024h-0.20158c-0.15118,0 -0.29229,-0.01008 -0.44347,-0.02016c4.29362,-0.30237 4.91851,-8.90977 8.38566,-17.89009c0.36284,0.09071 0.69545,0.11087 0.99781,0.02016z" fill="#a06b00"/><path d="M218.6831,174.02931c-0.97766,0.46867 -2.16193,0.0514 -2.62959,-0.92726l-0.18142,-0.37695c-0.46766,-0.97866 -0.05039,-2.16092 0.92726,-2.62959l2.70619,-1.29514c0.97866,-0.46867 2.16193,-0.0514 2.62959,0.92625l0.18142,0.37796c0.46766,0.97766 0.05039,2.16193 -0.92726,2.62959l-2.70619,1.29514" fill="#e8511c"/><path d="M246.14766,165.7147c-0.73576,0.01008 -1.49168,0.05039 -2.26776,0.11087c-13.52591,1.03813 -20.42997,7.51888 -24.46154,14.83617l-1.76381,-0.53418c4.07188,-7.10564 10.96587,-13.28402 24.15917,-14.30199c1.51184,-0.12095 2.95312,-0.15118 4.33394,-0.11087" fill="#4ba04b"/><path d="M269.49155,180.92994c-0.54225,-0.93936 -0.2177,-2.15185 0.72266,-2.6941l0.95951,-0.55434c0.93936,-0.54225 2.15185,-0.2167 2.6941,0.72165l2.04904,3.5498c0.54225,0.93936 0.2177,2.15084 -0.72266,2.6941l-0.95951,0.55333c-0.93936,0.54225 -2.15185,0.2177 -2.6941,-0.72165l-2.04904,-3.54879" fill="#e8511c"/><path d="M246.24613,167.32834c-1.02301,0.36083 -2.15487,-0.1794 -2.5157,-1.20242l-0.36889,-1.04518c-0.36183,-1.02301 0.1784,-2.15487 1.20141,-2.51671l3.86426,-1.36569c1.02301,-0.36083 2.15487,0.18041 2.5157,1.20242l0.3699,1.04518c0.36183,1.02301 -0.1794,2.15588 -1.20242,2.51671l-3.86426,1.36569" fill="#e8511c"/><path d="M208.35352,203.87138c9.07103,0 2.24054,-35.49292 35.5282,-38.04793c26.4995,-2.03393 33.05886,20.44812 34.43665,32.25456c0.35982,3.08113 -2.01578,5.79336 -5.11606,5.79336z" fill="#ffbf00"/><path d="M232.52932,164.80911c-0.29229,0 -0.58256,-0.12699 -0.78212,-0.37191c-0.35175,-0.43138 -0.28624,-1.06635 0.14514,-1.4171l5.29143,-4.30975c0.43239,-0.34974 1.06736,-0.28624 1.4181,0.14514c0.35175,0.43138 0.28624,1.06635 -0.14514,1.4181l-5.29143,4.30874c-0.18747,0.15219 -0.41223,0.22678 -0.63598,0.22678" fill="#ffbf00"/><path d="M266.88917,167.96371c-0.06249,0 -0.12498,-0.00504 -0.18848,-0.01814l-6.70551,-1.26894c-0.54729,-0.1028 -0.9061,-0.63094 -0.80329,-1.17722c0.10381,-0.54729 0.63195,-0.91214 1.17722,-0.80329l6.70651,1.26994c0.54729,0.1028 0.9061,0.63094 0.80228,1.17722c-0.09071,0.48379 -0.51402,0.82042 -0.98874,0.82042" fill="#ffbf00"/><path d="M209.60915,188.65453c-0.22375,0 -0.44952,-0.07358 -0.63699,-0.22778l-5.28841,-4.31378c-0.43138,-0.35075 -0.49588,-0.98572 -0.14312,-1.4171c0.35175,-0.43037 0.98572,-0.49689 1.4181,-0.14413l5.28841,4.31479c0.43138,0.35075 0.49588,0.98572 0.14312,1.4171c-0.19855,0.24391 -0.48883,0.3709 -0.78112,0.3709" fill="#ffbf00"/><path d="M266.47382,185.77558c-1.64387,0 -1.6469,-2.55501 0,-2.55501c1.64488,0 1.6469,2.55501 0,2.55501" fill="#efab00"/><path d="M253.38896,188.06098c-1.64387,0 -1.6469,-2.55501 0,-2.55501c1.64488,0 1.6469,2.55501 0,2.55501" fill="#efab00"/><path d="M251.80717,198.58085c-1.64387,0 -1.6469,-2.55501 0,-2.55501c1.64488,0 1.6479,2.55501 0,2.55501" fill="#efab00"/><path d="M230.16612,199.85846c-1.64387,0 -1.6469,-2.55501 0,-2.55501c1.64387,0 1.6469,2.55501 0,2.55501" fill="#efab00"/><path d="M232.69814,177.64351c-1.64387,0 -1.6469,-2.55501 0,-2.55501c1.64387,0 1.6469,2.55501 0,2.55501" fill="#efab00"/><path d="M246.24311,171.85407c-1.64387,0 -1.6469,-2.55601 0,-2.55601c1.64387,0 1.6469,2.55601 0,2.55601" fill="#efab00"/><path d="M239.60321,189.6083c-1.64387,0 -1.6469,-2.55501 0,-2.55501c1.64387,0 1.6469,2.55501 0,2.55501" fill="#efab00"/><path d="M225.45977,190.61619c-1.64387,0 -1.6469,-2.55501 0,-2.55501c1.64387,0 1.6469,2.55501 0,2.55501" fill="#efab00"/><path d="M268.96896,196.15274c-1.64387,0 -1.6469,-2.55501 0,-2.55501c1.64387,0 1.6469,2.55501 0,2.55501" fill="#efab00"/><path d="M259.0003,176.3659c-1.64488,0 -1.6479,-2.55501 0,-2.55501c1.64387,0 1.6469,2.55501 0,2.55501" fill="#efab00"/><path d="M215.00389,185.71158l0.9071,0.27213c-0.30237,0.0897 -0.63497,0.07055 -0.99781,-0.02016c0.03024,-0.08063 0.06047,-0.16126 0.09071,-0.25197" fill="#4ba04b"/></g></g></svg>